[img][/img]

[code]General
Complete name					: C:\Documents and Settings\user xp\My Documents\My Videos\Torrents\After Life (PSP,Ipod,Zune)\After Life.m4v
Format						   : MPEG-4
Format profile				   : Sony PSP
Codec ID						 : MSNV
File size						: 380 MiB
Duration						 : 1h 42mn
Overall bit rate				 : 517 Kbps
Movie name					   : After Life
Performer						: Albert
Encoded date					 : UTC 2010-01-01 00:00:00
Tagged date					  : UTC 2010-08-11 09:07:13
Writing application			  : encode-handheld-5.3.pl
Copyright						: © 2010 Albert. All Rights Reserved.
Cover							: yes
Comment						  : A Albert Production - 



plot: A young woman caught between life and death... and a funeral director who appears to have the gift of transitioning the dead, but might just be intent on burying her alive.


Video
ID							   : 1
Format						   : AVC
Format/Info					  : Advanced Video Codec
Format profile				   : Baseline@L2.1
Format settings, CABAC		   : No
Format settings, ReFrames		: 3 frames
Codec ID						 : avc1
Codec ID/Info					: Advanced Video Coding
Duration						 : 1h 42mn
Bit rate mode					: Variable
Bit rate						 : 384 Kbps
Width							: 480 pixels
Height						   : 208 pixels
Display aspect ratio			 : 2.35:1
Frame rate mode				  : Constant
Frame rate					   : 23.976 fps
Color space					  : YUV
Chroma subsampling			   : 4:2:0
Bit depth						: 8 bits
Scan type						: Progressive
Bits/(Pixel*Frame)			   : 0.160
Stream size					  : 283 MiB (74%)
Writing library				  : x264 core 78 r1318 fe83a90


Audio
ID							   : 2
Format						   : AAC
Format/Info					  : Advanced Audio Codec
Format version				   : Version 4
Format profile				   : LC
Format settings, SBR			 : No
Codec ID						 : 40
Duration						 : 1h 42mn
Bit rate mode					: Variable
Bit rate						 : 128 Kbps
Channel(s)					   : 2 channels
Channel positions				: Front: L R
Sampling rate					: 48.0 KHz
Stream size					  : 94.1 MiB (25%)
Language						 : English
iMDB: http://www.imdb.com/title/tt0838247/"]http://www.imdb.com/title/tt0838247

Encoder- Albert[/code]


[img]http://img683.imageshack.us/img683/2060/afterlifem4vthumbs20100.jpg[/img]